<svg xmlns="http://www.w3.org/2000/svg" version="1.1" xmlns:xlink="http://www.w3.org/1999/xlink" xmlns:svgjs="http://svgjs.com/svgjs" width="512" height="512" x="0" y="0" viewBox="0 0 64 64" style="enable-background:new 0 0 512 512" xml:space="preserve" class=""><g><path fill="#ffffff" d="M32 0a31.704 31.704 0 0 0-21.149 8.022L7.414 4.586A1.999 1.999 0 0 0 4 6v16a2 2 0 0 0 2 2h16.02a2 2 0 0 0 1.236-3.573l-3.903-3.903A19.817 19.817 0 0 1 32 12c11.028 0 20 8.972 20 20s-8.972 20-20 20-20-8.972-20-20a2 2 0 0 0-2-2H2a2 2 0 0 0-2 2c0 17.645 14.355 32 32 32s32-14.355 32-32S49.645 0 32 0z" data-original="#3d9ae2" class=""></path></g></svg>