<svg xmlns="http://www.w3.org/2000/svg" version="1.1" xmlns:xlink="http://www.w3.org/1999/xlink" xmlns:svgjs="http://svgjs.com/svgjs" width="512" height="512" x="0" y="0" viewBox="0 0 512 512" style="enable-background:new 0 0 512 512" xml:space="preserve" class=""><g><path d="M341.782 238.913a7.731 7.731 0 0 1-3.733-14.508c34.168-18.789 60.69-48.514 78.828-88.351 13.21-29.01 18.218-55.706 19.315-68.42H371.83a7.732 7.732 0 0 1 0-15.464h67.506c3.424 0 6.738 1.404 9.093 3.853 2.34 2.434 3.556 5.621 3.424 8.976-1.191 30.352-23.288 127.276-106.354 172.953a7.664 7.664 0 0 1-3.717.961zm97.556-171.278h.011-.011zM170.22 238.913a7.706 7.706 0 0 1-3.718-.958C83.435 192.277 61.338 95.353 60.147 65c-.131-3.355 1.085-6.543 3.425-8.976 2.354-2.448 5.668-3.852 9.092-3.852h67.506a7.732 7.732 0 0 1 0 15.464H75.808c1.097 12.713 6.106 39.409 19.315 68.42 18.139 39.837 44.661 69.562 78.828 88.351a7.731 7.731 0 0 1-3.731 14.506z" style="" fill="#f3a656" data-original="#f3a656" class=""></path><path d="M327.507 257.32c29.591-38.387 46.388-86.044 46.388-136.117V20.583H137.289v100.619c0 50.073 16.798 97.73 46.388 136.117 18.553 24.068 48.552 64.697 48.552 64.697 6.951 28.07-23.649 71.275-52.567 71.275a9.553 9.553 0 0 0-9.553 9.553v38.931h170.966v-38.931a9.553 9.553 0 0 0-9.553-9.553c-28.918 0-59.518-43.205-52.567-71.275-.001.001 29.999-40.628 48.552-64.696z" style="" fill="#f9c861" data-original="#f9c861" class=""></path><path d="M327.507 257.32c29.591-38.387 46.388-86.044 46.388-136.117V20.583h-45.101v100.619c0 50.073-16.798 97.73-46.388 136.117-18.553 24.068-39.055 62.959-39.055 62.959v14.335c2.446 26.786 18.225 58.679 43.07 58.679a9.553 9.553 0 0 1 9.553 9.553v38.931h45.101v-38.931a9.553 9.553 0 0 0-9.553-9.553c-28.918 0-59.518-43.205-52.567-71.275-.001 0 29.999-40.629 48.552-64.697z" style="" fill="#f3a656" data-original="#f3a656" class=""></path><path d="M402.4 512H105.348c-5.814 0-9.876-5.755-7.93-11.233l26.579-74.806a8.415 8.415 0 0 1 7.93-5.598h243.895a8.416 8.416 0 0 1 7.93 5.598l26.579 74.806c1.945 5.478-2.117 11.233-7.931 11.233z" style="" fill="#2c5871" data-original="#2c5871"></path><path d="m410.33 500.767-26.579-74.806a8.415 8.415 0 0 0-7.93-5.598h-41.45L366.931 512H402.4c5.814 0 9.876-5.755 7.93-11.233z" style="" fill="#1d4859" data-original="#1d4859"></path><path d="M390.47 31.381H120.715a5.714 5.714 0 0 1-5.714-5.714V5.714A5.714 5.714 0 0 1 120.715 0H390.47a5.714 5.714 0 0 1 5.714 5.714v19.953a5.714 5.714 0 0 1-5.714 5.714z" style="" fill="#f3a656" data-original="#f3a656" class=""></path><path d="M390.47 0h-39.982v31.381h39.982a5.714 5.714 0 0 0 5.714-5.714V5.714A5.714 5.714 0 0 0 390.47 0z" style="" fill="#ed864a" data-original="#ed864a"></path><path d="M334.012 482.813H177.99a2.765 2.765 0 0 1-2.765-2.765v-31.044a2.765 2.765 0 0 1 2.765-2.765h156.023a2.765 2.765 0 0 1 2.765 2.765v31.044a2.767 2.767 0 0 1-2.766 2.765z" style="" fill="#e1effb" data-original="#e1effb"></path><path d="M334.012 446.238h-42.845v36.574h42.845a2.765 2.765 0 0 0 2.765-2.765v-31.044a2.765 2.765 0 0 0-2.765-2.765z" style="" fill="#ccdfed" data-original="#ccdfed"></path><path d="M291.488 352.147h-70.973a5.577 5.577 0 0 1-5.577-5.577v-20.715a5.577 5.577 0 0 1 5.577-5.577h70.973a5.577 5.577 0 0 1 5.577 5.577v20.715a5.578 5.578 0 0 1-5.577 5.577z" style="" fill="#f3a656" data-original="#f3a656" class=""></path><path d="M297.064 346.57v-20.715a5.577 5.577 0 0 0-5.576-5.577h-48.137v14.335c.523 5.732 1.662 11.697 3.365 17.534h44.772a5.577 5.577 0 0 0 5.576-5.577z" style="" fill="#ed864a" data-original="#ed864a"></path></g></svg>